<svg width="141" height="194" viewBox="0 0 141 194" fill="none" xmlns="http://www.w3.org/2000/svg">
<path d="M0 70.5C0 31.5639 31.5639 0 70.5 0V0C109.436 0 141 31.5639 141 70.5V194H0V70.5Z" fill="#FFF9F9"/>
<path d="M20 111.291C12.1666 79.4573 17.4 12.7 73 9.5C56.8333 19.6667 16 36.7906 20 111.291Z" fill="#2DC1F8"/>
<path d="M73.5 9C66.5 31.5 46.6 80.3906 27 86.7906C29.1667 70.7906 42.3 31 73.5 9C20 9 12.1666 74.8333 11.5 104C4.50004 70.5 6.5 1.90735e-06 73.5 9Z" fill="#FF0000"/>
<path d="M36.5 88.2906C58.8333 81.9573 73 10.7906 73 10.7906C73 10.7906 120.5 11.2906 130.5 47.2906C140.5 83.2906 136 147.791 136 147.791C128.167 146.791 114.1 138.291 130.5 92.2906C146.9 46.2906 101.5 43.7906 73 10.7906C89.8 53.9906 58.6667 83.624 36.5 88.2906Z" fill="#FFF500"/>
<path d="M85 29.7906C107.667 39.624 146.4 67.7906 120 101.791C93.6 135.791 85.6667 67.9573 85 29.7906Z" fill="#4FEE7B"/>
</svg>
