<svg width="42" height="42" viewBox="0 0 42 42" fill="none" xmlns="http://www.w3.org/2000/svg">
<path fill-rule="evenodd" clip-rule="evenodd" d="M14.9475 20.7457L20.3595 15.3337C23.1085 18.3404 29.0703 24.7145 30.9259 26.1577C33.2453 27.9617 41.2345 36.9818 41.2345 37.7549C41.2345 38.5281 41.2345 39.0435 40.9768 39.8166C40.7191 40.5898 38.6573 41.6207 37.8842 41.8784C37.111 42.1361 32.9876 38.7858 30.9259 36.7241C29.7493 35.5475 28.2813 33.9955 27.0208 32.663C26.0725 31.6605 25.2417 30.7821 24.7407 30.2812C23.7917 29.3322 22.2422 27.8373 20.5695 26.2236C18.6082 24.3313 16.4776 22.2758 14.9475 20.7457ZM34.7916 37.2395C34.7916 36.4664 35.8224 35.4355 36.3379 35.4355C36.8533 35.4355 38.3996 36.9818 38.3996 37.7549C38.3996 38.5281 37.8842 39.3012 36.8533 39.0435C36.0286 38.8373 35.1352 37.7549 34.7916 37.2395Z" fill="#DF371C" fill-opacity="0.58"/>
<path d="M11.0818 24.6114L0 12.7565H1.03086V11.4679L2.57715 11.7256L2.06172 9.92164H3.60802L3.09259 9.14849H4.89659L5.15431 7.6022H6.18517V6.05591L7.73146 7.08677L7.21603 4.76733L9.02004 5.02505L8.76233 2.96332H10.5663V1.41703H12.1126V0.386169L23.7098 11.9834L11.0818 24.6114Z" fill="#DF371C" fill-opacity="0.37"/>
<path d="M16.2361 16.6223C15.8237 16.6223 10.3945 10.7807 7.73148 7.85992C7.47377 7.34449 8.24691 6.82906 8.50463 6.82906C8.76234 6.82906 11.3395 9.40622 11.8549 9.92165C12.3704 10.4371 17.267 15.076 17.0092 15.3337C16.7515 15.5914 16.7515 16.6223 16.2361 16.6223Z" fill="#DF371C" fill-opacity="0.3"/>
<path d="M12.1126 18.9417C11.3395 18.9417 5.66976 12.4988 5.66976 10.9525C6.18519 10.1794 6.70062 10.9525 7.21605 11.2102C7.73148 11.4679 7.9892 11.7257 8.50463 11.7257C9.02006 11.7257 13.9167 17.9108 14.4321 18.4263C14.9475 18.9417 14.1744 19.4571 13.6589 19.4571C13.1435 19.4571 12.8858 18.9417 12.1126 18.9417Z" fill="#DF371C" fill-opacity="0.3"/>
<path d="M17.5247 11.7257C17.5247 10.9525 11.3395 4.25191 10.3086 3.73648C9.02006 3.73648 9.53549 4.76734 9.79321 5.54048C10.0509 6.31363 16.4938 12.7565 17.0092 12.7565C17.5247 12.7565 17.5247 12.4988 17.5247 11.7257Z" fill="#DF371C" fill-opacity="0.3"/>
<path d="M20.3595 11.7257L12.1126 2.19018V0.64389L23.7098 11.7257L21.1327 14.8182C20.875 14.6464 20.3595 14.1997 20.3595 13.7874V11.7257Z" fill="#DF371C" fill-opacity="0.3"/>
<path d="M2.31946 13.5297C1.70094 13.3235 1.03088 13.4438 0.773163 13.5297L11.0818 24.3537L14.1744 21.5188C13.2294 21.347 11.2364 21.0034 10.8241 21.0034C10.3086 21.0034 3.0926 13.7874 2.31946 13.5297Z" fill="#DF371C" fill-opacity="0.3"/>
<path d="M14.9475 20.7457L16.2361 22.0343C16.7515 21.2611 17.9886 19.6117 18.8132 19.1994C19.8441 18.684 20.6172 18.9417 21.3904 19.1994C22.1635 19.4571 28.8641 26.4154 31.699 29.2503C33.9669 31.5182 38.3996 34.8341 40.2036 36.2086C37.8842 32.8583 33.0907 28.1163 31.4413 26.6731C29.7919 25.2299 23.3662 18.684 20.6172 15.5914L14.9475 20.7457Z" fill="#DF371C" fill-opacity="0.5"/>
</svg>
