<svg width="38" height="45" viewBox="0 0 38 45" fill="none" xmlns="http://www.w3.org/2000/svg">
<path d="M10.1558 1.55764C10.1558 1.99472 12.3412 11.5741 13.4339 16.3091C9.9737 12.0294 2.94399 3.41524 2.50691 3.1967C1.96056 2.92353 1.41421 3.1967 1.14103 3.46988C0.867859 3.74305 0.867859 5.65528 0.867859 6.20163C0.867859 6.74798 8.24359 22.319 9.33629 23.1385C10.2105 23.7941 11.7038 24.5044 12.3412 24.7775C10.7932 26.5987 7.58797 30.6781 7.15089 32.4264C6.60454 34.6118 6.87771 37.6168 8.24359 40.0754C9.60946 42.5339 13.1607 45.2657 16.712 44.8193C20.2633 44.373 21.6292 41.4412 22.1755 39.529C22.6126 37.9992 22.3576 33.0639 22.1755 30.7874C23.3593 31.6069 25.8907 33.3006 26.5463 33.5191C27.3659 33.7923 29.8244 34.6118 31.4635 34.885C33.1025 35.1582 36.1075 34.885 36.927 33.246C37.7465 31.6069 38.566 27.5093 37.4733 25.0507C36.3806 22.5921 32.283 20.1336 29.5513 19.5872C27.3659 19.1501 22.995 19.9514 21.0828 20.4067C21.1739 19.6783 21.356 18.0028 21.356 17.1286C21.356 16.0359 12.3412 1.01129 11.7949 0.464944C11.2485 -0.0814067 10.1558 1.01129 10.1558 1.55764Z" fill="#DF371C" fill-opacity="0.28"/>
<path d="M11.7949 2.104L16.712 23.1385L2.50693 5.10893L10.9754 22.5921L16.712 25.3239L19.1706 23.958L19.717 17.9482L11.7949 2.104Z" fill="#DF371C" fill-opacity="0.36"/>
<path d="M25.7268 21.4995C23.3229 21.4995 19.2616 23.1385 17.5315 23.958C17.1673 24.0491 15.9471 24.559 13.9803 25.8703C11.5217 27.5093 9.06311 33.5192 9.06311 36.5241C9.06311 39.529 11.7949 42.8071 15.3461 43.0803C18.8974 43.3535 19.7169 41.9876 20.5365 39.529C21.1921 37.5621 20.6275 30.5142 20.2633 27.2361C21.356 28.1467 24.197 30.3503 26.8195 31.8801C30.0976 33.7923 33.3757 34.3387 35.0147 32.4265C36.6538 30.5142 36.1075 26.6898 34.7416 24.5044C33.3757 22.319 28.7317 21.4995 25.7268 21.4995Z" fill="#DF371C" fill-opacity="0.36"/>
<path d="M15.8925 26.1434C15.3944 25.108 15.97 23.9498 16.9852 23.4117C18.0599 22.842 19.4376 23.1476 19.9901 24.2312C20.3294 24.8964 20.3382 25.4827 19.9901 26.1434C19.5892 26.9043 18.9367 27.1884 18.0779 27.2361C17.1252 27.289 16.3061 27.0033 15.8925 26.1434Z" fill="#DF371C" fill-opacity="0.8"/>
<path d="M27.3268 27.7411C26.2948 26.9473 25.1995 26.0489 24.2492 25.2448C25.3649 25.0111 26.7737 24.8338 28.0948 24.9539C29.4808 25.0799 30.4216 25.4485 30.9973 25.9241C31.5392 26.3718 31.8294 26.97 31.8294 27.7825C31.8294 28.7193 31.5956 29.1912 31.3795 29.424C31.1793 29.6396 30.8757 29.7776 30.4203 29.7869C30.3989 29.7799 30.3369 29.7596 30.2243 29.7066C30.0363 29.6181 29.7884 29.478 29.485 29.2856C28.8806 28.9023 28.1312 28.3599 27.3268 27.7411ZM13.6008 34.5031C13.6232 34.3683 13.7535 34.0338 14.0656 33.4879C14.3571 32.9779 14.7489 32.3815 15.1871 31.7593C15.5138 31.2955 15.8608 30.8251 16.2022 30.3758C16.3006 31.5397 16.4059 32.7977 16.5008 33.9495C16.5861 34.9859 16.6628 35.9349 16.718 36.6514C16.7457 37.0099 16.7679 37.3082 16.7831 37.5294C16.7907 37.6402 16.7964 37.7292 16.8001 37.7956C16.8019 37.8282 16.803 37.8511 16.8037 37.8663C16.7999 37.8808 16.7869 37.934 16.7455 38.0201C16.6864 38.143 16.5957 38.2755 16.4776 38.3844C16.2805 38.5665 15.9559 38.7413 15.3477 38.5675C14.8281 38.419 14.3147 37.8775 13.9526 36.9722C13.5987 36.0873 13.4992 35.1123 13.6008 34.5031Z" stroke="#DF371C" stroke-opacity="0.5" stroke-width="2"/>
</svg>
