<svg width="43" height="42" viewBox="0 0 43 42" fill="none" xmlns="http://www.w3.org/2000/svg">
<path d="M34.6836 5.83276L14.8759 25.6405L16.5039 27.5398L36.583 8.00347L37.6683 4.74741L34.6836 5.83276Z" fill="#DF371C" fill-opacity="0.4"/>
<path d="M5.37903 32.9666C6.24731 33.1837 7.18795 34.1424 7.54974 34.5947C8.27331 35.4087 9.72045 37.1995 9.72045 37.8507C9.72045 38.6647 8.36375 39.4788 7.00706 39.2074C5.65037 38.9361 2.93698 35.4087 2.93698 34.5947C2.93698 33.7806 4.29367 32.6953 5.37903 32.9666Z" fill="#DF371C" fill-opacity="0.48"/>
<path d="M15.1472 24.8264H12.9765L5.37904 33.7806L5.1077 35.68L7.00707 37.308L8.90644 37.0367L17.5893 29.4392V27.5398L15.1472 24.8264Z" fill="#DF371C" fill-opacity="0.5"/>
<path d="M4.02233 9.08881C2.7199 8.65467 2.03251 6.73721 1.85162 5.83275C1.39939 6.46588 0.494929 8.00346 0.494929 9.08881C0.494929 10.4455 -0.0477483 12.6162 2.12296 13.4302C3.85953 14.0814 7.54973 13.7016 9.17776 13.4302C9.17776 13.4302 15.4256 19.0865 19.2173 22.9271C23.0634 26.8228 28.7141 33.2379 28.7141 33.2379C28.5332 35.68 28.6056 40.7812 30.3422 41.6494C32.0787 42.5177 35.0454 41.2877 36.3116 40.5641C35.2263 40.2928 33.0013 39.3159 32.7842 37.5794C32.5129 35.4087 33.5982 33.2379 34.6836 32.6953C35.7689 32.1526 37.6683 31.6099 39.2963 33.2379C40.5988 34.5404 41.2862 35.7704 41.4671 36.2227C41.5575 35.3182 41.7927 33.1294 42.0097 31.6099C42.2811 29.7105 40.1104 28.6252 39.2963 28.0825C38.6451 27.6484 35.2263 27.9016 33.5982 28.0825C33.5982 28.0825 27.0507 22.907 23.2874 19.1283C19.6295 15.4556 14.6045 9.08881 14.6045 9.08881C14.5141 8.36524 14.6045 6.55366 14.6045 5.01874C14.6045 2.84803 13.5192 0.948656 11.8911 0.405979C10.5887 -0.0281632 7.54973 0.948656 6.19304 1.49133C7.00705 1.85312 8.85216 2.84803 9.72044 3.93338C10.8058 5.29007 9.4491 8.54613 8.63509 9.08881C7.82107 9.63149 5.65036 9.63149 4.02233 9.08881Z" fill="#DF371C" fill-opacity="0.4"/>
<path fill-rule="evenodd" clip-rule="evenodd" d="M7.92449 9.3674C7.6363 10.015 7.28911 10.5288 7.00707 10.7168C6.19305 11.2595 4.02234 11.2595 2.39431 10.7168C1.5077 10.4213 0.906102 9.4384 0.555272 8.55559C0.516736 8.74085 0.494929 8.92029 0.494929 9.08882C0.494929 9.3036 0.481328 9.53878 0.467045 9.78575C0.391109 11.0988 0.295901 12.7451 2.12296 13.4302C3.85953 14.0815 7.54973 13.7016 9.17776 13.4302C9.17776 13.4302 15.4256 19.0865 19.2173 22.9271C23.0634 26.8228 28.7141 33.238 28.7141 33.238C28.5332 35.68 28.6056 40.7812 30.3422 41.6494C31.1887 42.0727 32.3276 41.9973 33.4193 41.7251C32.3973 41.2312 31.305 40.3978 31.1562 39.2074C30.8849 37.0367 31.9702 34.866 33.0556 34.3233C33.1604 34.2709 33.2728 34.2185 33.3918 34.168C33.7506 33.4625 34.2171 32.9285 34.6836 32.6953C35.7689 32.1526 37.6683 31.6099 39.2963 33.238C39.6578 33.5994 39.9719 33.9553 40.2409 34.2905C40.2876 33.9217 40.3351 33.5644 40.3817 33.238C40.6219 31.5569 38.9492 30.5135 37.9971 29.9196C37.8734 29.8425 37.7619 29.7729 37.6683 29.7106C37.0171 29.2764 33.5982 29.5297 31.9702 29.7106C31.9702 29.7106 25.4227 24.5351 21.6593 20.7564C18.0014 17.0836 12.9765 10.7168 12.9765 10.7168C12.9175 10.2446 12.9355 9.30891 12.9551 8.28916C12.9656 7.74644 12.9765 7.17992 12.9765 6.64678C12.9765 4.47607 11.8912 2.57669 10.2631 2.03402C9.63024 1.82305 8.58731 1.94526 7.5266 2.18892C8.31972 2.65847 9.19734 3.27952 9.72044 3.93338C10.8058 5.29008 9.4491 8.54614 8.63509 9.08882C8.45671 9.20774 8.21318 9.3006 7.92449 9.3674Z" fill="#DF371C" fill-opacity="0.5"/>
</svg>
