<svg width="293" height="29" viewBox="0 0 293 29" fill="none" xmlns="http://www.w3.org/2000/svg">
<path d="M254.974 3.32435e-06C274.855 1.58627e-06 288.609 18.6667 293 28L190 28L190 9.00455e-06L254.974 3.32435e-06Z" fill="#DF371C" fill-opacity="0.34"/>
<rect width="92.4949" height="28.0469" transform="matrix(-1 8.74228e-08 8.74228e-08 1 187.57 0)" fill="#DF371C" fill-opacity="0.34"/>
<rect width="92.4949" height="2.98371" transform="matrix(-1 8.74228e-08 8.74228e-08 1 187.57 20.8863)" fill="#FB5933" fill-opacity="0.5"/>
<rect width="92.4949" height="28.0469" transform="matrix(-1 8.74228e-08 8.74228e-08 1 92.495 0.000396729)" fill="#DF371C" fill-opacity="0.34"/>
<rect width="92.4949" height="2.98371" transform="matrix(-1 8.74228e-08 8.74228e-08 1 92.4949 20.8863)" fill="#FB5933" fill-opacity="0.5"/>
<rect width="13.7251" height="15.5153" transform="matrix(-1 8.74228e-08 8.74228e-08 1 252.002 3.17731)" fill="#FB5933" fill-opacity="0.5"/>
<rect width="13.7251" height="15.5153" transform="matrix(-1 8.74228e-08 8.74228e-08 1 231.503 3.17728)" fill="#FB5933" fill-opacity="0.5"/>
<rect width="13.7251" height="15.5153" transform="matrix(-1 8.74228e-08 8.74228e-08 1 211.004 3.17725)" fill="#FB5933" fill-opacity="0.5"/>
<rect width="70" height="2.99999" transform="matrix(-1 8.74228e-08 8.74228e-08 1 260 21)" fill="#FB5933" fill-opacity="0.5"/>
<path fill-rule="evenodd" clip-rule="evenodd" d="M290.851 24H264V1.3092C276.709 5.04014 286.048 15.9746 290.851 24Z" fill="#FB5933" fill-opacity="0.5"/>
</svg>
